<?xml version="1.0" standalone="no"?>
<!DOCTYPE svg PUBLIC "-//W3C//DTD SVG 20010904//EN"
 "http://www.w3.org/TR/2001/REC-SVG-20010904/DTD/svg10.dtd">
<svg version="1.0" xmlns="http://www.w3.org/2000/svg"
 width="550px" height="450px" viewBox="0 0 3264.000000 3264.000000"
 preserveAspectRatio="xMidYMid meet">
<g transform="translate(0.000000,3264.000000) scale(0.100000,-0.100000)"
fill="#000" stroke="none">
<path d="M22374 30696 c-4 -9 5 -43 20 -75 26 -59 33 -96 18 -105 -5 -3 -32
13 -61 35 -28 22 -56 37 -62 34 -5 -4 -9 -31 -9 -62 0 -60 5 -57 -60 -37 -23
7 -60 -46 -60 -88 0 -32 -15 -35 -48 -12 -21 14 -25 14 -47 0 -13 -9 -25 -28
-27 -43 -3 -26 -6 -28 -44 -25 -39 3 -41 1 -65 -44 -18 -35 -34 -51 -66 -65
-25 -11 -43 -25 -43 -35 0 -8 -22 -37 -50 -64 -55 -53 -65 -91 -30 -110 37
-20 22 -35 -47 -51 -66 -15 -68 -16 -66 -46 2 -23 -3 -33 -22 -43 -25 -13 -35
-40 -15 -40 6 0 10 -9 10 -20 0 -13 -14 -27 -40 -40 -43 -22 -48 -31 -26 -49
17 -14 10 -88 -10 -112 -21 -24 -18 -31 41 -89 70 -69 73 -94 13 -111 -24 -6
-63 -17 -88 -25 -42 -12 -157 -26 -375 -43 -100 -8 -121 -16 -159 -62 -30 -35
-34 -88 -11 -133 8 -15 15 -48 15 -72 0 -33 6 -50 28 -73 15 -16 37 -41 50
-54 12 -14 47 -39 77 -56 64 -36 111 -39 170 -12 41 19 220 172 278 237 37 43
89 68 120 58 30 -9 37 -22 37 -74 0 -35 8 -56 34 -93 35 -49 76 -87 94 -87 6
0 20 -13 32 -30 12 -17 31 -30 43 -30 12 0 31 -7 41 -15 11 -8 31 -15 44 -15
13 0 36 -6 50 -14 77 -41 132 -61 172 -62 25 -1 77 -10 115 -21 39 -12 93 -23
120 -26 28 -3 71 -13 95 -22 25 -9 61 -20 80 -24 19 -5 47 -12 63 -16 25 -7
27 -5 27 24 0 28 3 31 29 31 16 0 42 -7 58 -17 38 -21 80 -11 96 24 10 23 9
27 -13 42 -41 27 -189 182 -253 263 -33 43 -92 102 -131 132 -79 61 -83 65
-132 119 -50 56 -45 73 33 132 103 77 188 116 245 114 46 -2 76 9 50 18 -7 3
-25 16 -41 29 -60 50 -99 54 -222 22 -75 -19 -92 -20 -128 -10 -29 9 -41 18
-41 31 0 18 51 75 151 167 25 23 60 70 79 105 18 35 46 80 61 99 41 54 175
326 185 379 12 60 -23 135 -101 217 -39 41 -74 74 -79 74 -4 0 -16 -10 -26
-22 l-18 -22 -57 49 c-87 77 -94 80 -101 61z"/>
<path d="M25960 27418 c0 -7 9 -24 20 -38 11 -14 20 -28 20 -32 1 -26 -228 -8
-342 27 -46 14 -61 15 -72 6 -25 -21 2 -60 63 -91 65 -32 236 -165 236 -183 0
-13 1 -13 -136 7 -53 7 -105 19 -117 25 -24 13 -48 6 -57 -16 -8 -23 35 -83
99 -139 30 -26 53 -51 50 -56 -3 -4 -43 -8 -90 -8 -46 0 -84 -3 -85 -7 -10
-80 -4 -110 33 -169 21 -34 38 -65 38 -69 0 -7 -52 -3 -132 11 -37 7 -38 6
-38 -25 0 -18 -5 -41 -10 -52 -12 -21 6 -65 34 -88 9 -8 16 -22 16 -33 0 -18
-4 -19 -37 -12 -21 4 -51 8 -68 8 l-30 1 -3 -73 c-2 -61 0 -77 18 -103 23 -31
21 -59 -4 -59 -11 0 -86 -72 -86 -83 0 -2 9 -30 20 -62 25 -73 25 -80 -4 -118
-34 -45 -38 -92 -13 -150 18 -41 26 -49 61 -58 69 -17 74 -19 86 -34 9 -11 3
-19 -30 -40 -74 -47 -166 -153 -148 -171 4 -3 25 -8 47 -11 23 -3 43 -9 46
-13 2 -4 -9 -33 -25 -64 -17 -31 -30 -64 -30 -71 0 -21 35 -36 75 -33 54 3 63
-14 29 -56 -47 -56 -75 -107 -72 -130 2 -17 12 -22 57 -28 66 -8 73 -15 61
-58 -9 -31 -7 -36 32 -71 41 -38 41 -39 34 -94 l-6 -55 34 -14 c18 -8 40 -22
47 -33 14 -19 79 -43 116 -43 11 0 32 -9 47 -21 15 -12 44 -23 66 -26 30 -4
46 -14 65 -39 14 -18 25 -35 25 -39 0 -3 -49 -54 -108 -113 -82 -82 -120 -112
-157 -126 -28 -11 -67 -30 -88 -43 -20 -13 -67 -38 -105 -56 -37 -18 -96 -49
-132 -69 -36 -20 -85 -45 -110 -54 -50 -20 -185 -97 -214 -123 -19 -17 -56
-82 -67 -117 -12 -39 27 -153 74 -220 12 -18 30 -46 39 -63 10 -19 27 -33 45
-36 48 -10 57 -19 93 -91 43 -87 77 -134 96 -134 8 0 17 -7 20 -15 3 -8 25
-20 48 -26 22 -6 52 -21 66 -34 14 -12 48 -34 77 -49 28 -14 68 -37 89 -51 22
-15 51 -25 73 -25 20 0 63 -7 96 -15 153 -37 238 -8 313 105 23 35 42 73 42
85 0 11 11 56 24 100 33 108 44 155 61 253 8 45 17 87 20 93 4 5 13 62 22 127
8 64 21 127 29 139 7 12 43 38 78 58 l64 36 46 -31 c25 -17 46 -35 46 -39 0
-5 20 -28 45 -52 27 -27 45 -53 45 -66 0 -16 13 -32 41 -51 23 -15 60 -43 83
-63 25 -22 56 -38 79 -42 21 -3 53 -19 71 -35 22 -19 49 -31 79 -35 25 -4 62
-18 82 -31 20 -14 57 -28 83 -32 26 -3 58 -14 72 -23 50 -33 84 -41 165 -41
46 0 96 -5 112 -11 15 -7 78 -13 138 -15 131 -3 346 -20 395 -32 59 -14 201
-7 238 12 36 19 99 24 374 30 156 4 170 6 208 29 36 21 47 23 83 15 23 -5 89
-6 147 -3 91 6 113 4 164 -14 56 -20 69 -21 190 -11 72 6 176 11 231 13 78 1
100 5 100 16 0 8 -17 19 -38 25 -45 13 -150 111 -145 135 3 14 23 16 136 16
73 0 161 -2 194 -5 68 -7 160 8 155 25 -2 5 -28 12 -59 15 -54 5 -93 24 -82
41 2 5 49 8 102 7 154 -3 223 23 96 36 -71 7 -134 29 -134 45 0 12 17 16 109
31 109 16 90 27 -64 34 -81 4 -165 13 -188 21 -23 7 -64 17 -92 21 -27 3 -58
11 -69 16 -10 6 -46 18 -80 28 -91 28 -165 56 -220 84 -27 14 -56 26 -65 26
-8 0 -33 8 -55 19 -23 10 -81 33 -131 51 -49 18 -108 41 -130 50 -59 27 -169
70 -178 70 -4 0 -73 32 -155 72 -204 99 -298 131 -577 193 -167 38 -332 95
-485 170 -52 26 -105 51 -117 57 -33 16 -34 32 -7 70 14 18 39 78 55 133 43
141 79 210 149 287 71 78 144 127 220 148 45 12 56 19 58 39 4 22 1 24 -33 18
-20 -3 -57 0 -83 8 -26 8 -85 26 -131 40 -113 34 -160 28 -266 -33 -44 -25
-107 -71 -141 -101 -98 -90 -156 -119 -259 -132 -104 -13 -105 -12 -124 79
-18 83 0 205 45 300 41 88 41 105 10 299 -14 81 -28 180 -31 218 -12 121 -59
366 -116 605 -28 117 -98 258 -149 298 -21 18 -45 32 -53 32 -8 0 -30 11 -49
24 -44 29 -135 64 -213 81 -97 21 -196 45 -249 61 -60 17 -106 18 -106 2z"/>
<path d="M22650 26515 c0 -4 7 -19 15 -35 18 -34 15 -36 -25 -15 -29 15 -30
15 -27 -7 1 -17 -4 -24 -21 -26 -12 -2 -26 -11 -32 -21 -6 -13 -17 -17 -35
-14 -15 3 -25 1 -25 -6 0 -6 -13 -11 -30 -11 -19 0 -33 -7 -40 -20 -6 -11 -19
-20 -30 -20 -13 0 -22 -9 -26 -25 -3 -14 -15 -30 -25 -36 -20 -10 -26 -44 -9
-54 20 -12 10 -25 -19 -25 -35 0 -61 -31 -61 -71 0 -16 -9 -32 -22 -42 -19
-12 -21 -18 -10 -28 6 -7 12 -33 12 -57 0 -57 12 -78 60 -102 49 -25 54 -56
13 -66 -16 -3 -42 -10 -60 -16 -18 -5 -61 -9 -95 -8 -146 5 -343 -10 -375 -27
-49 -26 -59 -93 -20 -140 13 -15 27 -46 30 -68 4 -22 11 -41 17 -43 6 -2 35
-24 65 -49 66 -53 150 -79 221 -68 47 7 81 36 236 204 65 70 102 67 133 -11
43 -108 235 -199 450 -214 55 -3 115 -13 134 -20 44 -18 70 -18 78 2 4 10 13
14 28 10 12 -3 30 1 41 10 18 14 18 15 -11 37 -16 12 -53 45 -81 72 -75 73
-155 145 -214 190 -76 59 -77 64 -25 119 29 30 53 46 69 46 58 0 32 43 -33 56
-19 4 -48 2 -66 -5 -41 -14 -85 0 -85 27 0 11 16 36 35 56 19 20 39 56 46 79
6 23 17 56 24 72 19 41 37 163 28 179 -28 47 -111 135 -128 136 -11 0 -36 14
-55 30 -32 28 -50 37 -50 25z"/>
<path d="M18955 26210 c-3 -5 -19 -10 -35 -10 -43 0 -77 -16 -85 -39 -4 -15
-15 -21 -34 -21 -19 0 -34 -9 -49 -30 -13 -17 -32 -30 -43 -30 -16 0 -20 -5
-16 -20 3 -11 -3 -30 -14 -44 -24 -30 -24 -33 1 -79 11 -21 18 -42 15 -47 -16
-25 -119 -4 -199 41 -14 8 -22 7 -32 -3 -17 -16 -105 -274 -96 -282 16 -17 72
-5 216 48 90 33 124 17 110 -52 -10 -48 48 -154 122 -224 35 -33 76 -67 91
-75 16 -8 37 -22 48 -32 11 -10 36 -28 57 -40 20 -12 39 -29 42 -37 4 -11 13
-14 31 -10 13 3 35 1 49 -6 15 -6 29 -8 32 -5 4 3 -10 44 -30 91 -20 46 -36
95 -36 109 0 13 -9 35 -20 49 -20 26 -48 95 -57 138 -4 22 1 27 41 42 24 9 53
14 64 11 30 -8 37 16 11 43 -12 13 -27 24 -32 24 -5 0 -24 7 -43 16 -50 24
-45 50 13 75 30 13 74 48 120 94 70 72 73 77 73 122 0 43 -12 77 -55 156 -6
10 -17 16 -27 14 -9 -3 -19 2 -22 10 -4 10 -12 13 -24 8 -21 -8 -62 -16 -82
-16 -40 2 -69 7 -76 14 -10 10 -22 9 -29 -3z"/>
<path d="M20891 25065 c-76 -221 -242 -501 -351 -594 -147 -125 -222 -171
-344 -211 -38 -13 -78 -32 -89 -44 -28 -30 -106 -157 -113 -183 -6 -20 -34
-41 -34 -24 0 4 18 49 40 100 22 50 40 96 40 101 0 5 -30 -10 -67 -34 -82 -53
-226 -124 -348 -173 -49 -19 -108 -44 -130 -54 -43 -20 -210 -81 -370 -134
-65 -22 -106 -42 -118 -57 -10 -13 -32 -41 -50 -62 -18 -21 -34 -44 -36 -50
-7 -19 -93 -127 -97 -123 -7 7 11 48 49 112 20 32 35 60 33 62 -3 3 -93 -33
-181 -72 -16 -7 -82 -27 -145 -45 -63 -18 -146 -42 -185 -53 -38 -11 -131 -33
-205 -48 -74 -16 -175 -37 -225 -48 -49 -10 -113 -22 -142 -26 -53 -7 -150
-57 -295 -151 -37 -24 -71 -44 -75 -44 -4 0 -51 -27 -103 -60 -52 -33 -100
-60 -107 -60 -23 0 -14 18 20 39 17 11 50 38 72 60 21 23 44 41 50 41 5 0 37
25 70 55 46 41 55 54 40 55 -50 1 -307 -57 -445 -101 -52 -16 -133 -42 -180
-56 -47 -15 -110 -40 -141 -55 -31 -15 -81 -37 -111 -48 -30 -11 -81 -36 -113
-56 -33 -19 -81 -46 -107 -59 -131 -66 -355 -265 -489 -435 -182 -232 -383
-595 -470 -851 -12 -35 -28 -71 -36 -79 -16 -18 -14 9 18 180 25 132 29 146
96 309 84 202 216 414 353 565 34 37 59 70 57 73 -8 7 -183 -93 -320 -183
-255 -169 -487 -398 -634 -626 -50 -79 -132 -237 -147 -285 -4 -13 -12 -23
-17 -23 -12 0 -13 -6 16 132 29 142 29 133 11 119 -19 -16 -96 -144 -96 -159
0 -7 -4 -12 -10 -12 -5 0 -10 -5 -10 -12 0 -6 -6 -19 -13 -27 -12 -15 -35 -63
-111 -238 -35 -79 -103 -316 -131 -454 -17 -80 -35 -277 -35 -381 0 -43 -4
-78 -8 -78 -5 0 -19 66 -32 148 -13 81 -27 151 -30 155 -4 5 -11 -56 -15 -135
-7 -151 10 -506 26 -523 11 -11 11 -56 0 -73 -5 -9 -18 10 -40 60 -60 134
-241 434 -248 412 -2 -6 8 -41 22 -78 14 -36 34 -101 45 -144 11 -42 25 -86
29 -97 15 -32 50 -249 61 -375 13 -155 13 -200 -2 -200 -13 1 -43 63 -169 343
-34 75 -64 136 -66 134 -1 -2 20 -91 47 -198 107 -410 123 -479 117 -485 -9
-9 -179 137 -269 231 -27 28 -66 68 -88 90 -22 22 -40 45 -40 51 0 6 -9 19
-20 29 -33 30 -137 187 -164 248 -14 31 -28 57 -32 57 -10 0 3 -220 16 -255 5
-16 19 -68 30 -114 22 -91 86 -236 142 -317 l35 -52 -119 -7 c-114 -7 -121 -6
-150 15 -29 21 -30 21 -24 2 6 -18 1 -21 -39 -27 -51 -8 -178 8 -228 28 -29
12 -51 9 -227 -30 -107 -24 -202 -46 -210 -50 -8 -3 -19 -7 -25 -8 -5 -1 -12
-3 -15 -5 -3 -1 -14 -4 -25 -5 -11 -2 -94 -22 -185 -44 -155 -39 -199 -59
-184 -82 3 -5 2 -15 -3 -21 -4 -7 -8 -17 -8 -23 -1 -5 -4 -17 -8 -25 -3 -8
-46 -177 -96 -375 -49 -198 -117 -466 -151 -595 -34 -129 -62 -242 -62 -250 0
-8 -4 -19 -8 -25 -5 -5 -22 -68 -40 -140 -124 -512 -171 -702 -177 -715 -4 -8
-8 -22 -9 -30 -5 -24 -141 -563 -179 -710 -20 -74 -70 -270 -111 -435 -41
-165 -79 -309 -84 -320 -5 -11 -43 -157 -85 -325 -41 -168 -78 -312 -80 -320
-3 -8 -52 -206 -110 -440 -58 -234 -109 -432 -112 -440 -4 -8 -8 -19 -8 -25
-1 -5 -5 -17 -8 -25 -12 -29 -118 -473 -114 -477 3 -3 300 45 447 72 249 46
613 102 1035 161 187 25 347 49 355 52 8 3 25 4 37 3 13 -1 28 1 35 6 7 4 29
9 48 10 19 1 121 13 225 27 895 117 1924 142 2670 65 137 -14 424 -55 515 -74
113 -24 124 -26 140 -29 9 -1 20 -5 25 -8 6 -3 28 -9 50 -12 80 -14 353 -86
479 -125 82 -26 134 -37 144 -32 19 11 12 15 -106 58 -527 191 -938 295 -1397
353 -93 11 -183 25 -198 30 -15 5 -43 6 -62 3 -20 -3 -35 -1 -35 4 0 21 -381
38 -845 38 -453 0 -908 -18 -931 -37 -7 -4 -36 -8 -65 -7 -89 2 -1056 -102
-1594 -171 -267 -34 -309 -39 -350 -39 -16 0 -39 -5 -50 -10 -17 -8 -275 -42
-282 -37 -1 1 6 38 16 82 11 43 31 133 46 199 15 66 30 125 35 130 4 6 8 17 8
25 0 8 18 87 40 175 21 88 58 243 82 345 23 102 51 219 62 260 11 41 40 158
64 260 25 102 48 192 51 200 4 8 8 20 8 25 1 6 5 17 8 25 3 8 38 155 78 325
39 171 87 373 106 450 19 77 36 149 38 160 2 11 4 22 6 25 1 3 3 10 4 15 1 6
5 17 8 25 4 8 50 202 102 430 53 228 99 422 102 430 4 8 8 20 8 25 1 6 5 17 8
25 4 8 20 74 36 145 31 135 76 321 135 560 48 195 104 433 112 478 3 20 11 37
16 37 6 0 7 7 4 16 -4 9 -1 23 5 31 7 7 9 16 6 20 -4 3 -3 11 2 17 4 6 27 97
51 201 23 105 43 195 45 201 2 8 88 29 165 39 8 1 22 5 30 8 8 3 26 7 40 10
71 12 437 89 450 94 8 3 22 5 32 4 9 -1 19 3 23 9 3 6 11 7 17 4 5 -4 20 -1
31 5 27 13 236 51 252 45 6 -3 19 -20 27 -38 27 -55 123 -150 215 -212 49 -33
90 -61 93 -64 3 -3 33 -18 68 -34 34 -16 62 -33 62 -37 0 -9 -53 -19 -104 -19
-22 0 -58 -3 -79 -7 -72 -11 -16 -23 115 -23 l127 0 20 29 c12 16 21 33 21 37
0 14 141 285 200 383 31 54 79 135 105 182 27 46 58 98 70 114 13 17 26 40 30
53 3 12 11 22 16 22 5 0 9 5 9 10 0 6 41 71 90 146 50 75 90 138 90 141 0 3
35 56 79 118 43 62 87 127 97 144 10 17 22 31 26 31 4 0 8 5 8 10 0 13 162
230 232 311 26 31 48 61 48 66 0 6 22 33 49 61 27 28 51 56 53 61 9 26 341
381 545 581 209 206 455 434 489 453 7 4 37 30 65 57 29 28 56 50 61 50 5 0
23 13 41 30 58 53 352 282 395 307 17 10 87 57 157 106 69 48 128 87 131 87 3
0 24 13 47 29 86 59 172 111 184 111 7 0 16 6 20 13 4 7 37 28 73 46 36 18 72
39 80 46 8 7 51 30 95 52 44 22 154 77 245 122 221 110 328 162 430 206 47 20
112 49 145 65 33 15 89 40 125 55 36 15 88 38 115 51 28 13 70 31 95 39 24 9
54 22 65 29 11 7 45 22 75 33 75 28 322 129 395 163 33 16 103 43 155 61 52
17 133 47 180 66 129 53 160 63 160 54 0 -9 -238 -129 -350 -176 -36 -15 -75
-34 -87 -41 -12 -8 -27 -14 -32 -14 -6 0 -59 -21 -118 -46 -59 -25 -178 -75
-263 -110 -85 -36 -192 -83 -237 -105 -45 -21 -86 -39 -91 -39 -10 0 -292
-126 -437 -195 -296 -141 -620 -310 -702 -366 -23 -16 -54 -34 -69 -39 -14 -6
-72 -41 -128 -77 -55 -37 -115 -74 -131 -82 -17 -9 -79 -50 -139 -91 -59 -41
-115 -79 -124 -85 -33 -20 -367 -270 -370 -277 -2 -5 -8 -8 -12 -8 -5 0 -20
-9 -32 -21 -13 -11 -52 -43 -88 -71 -132 -105 -322 -283 -595 -559 -268 -271
-587 -622 -605 -664 -5 -11 -29 -41 -54 -67 -25 -26 -46 -50 -46 -54 0 -4 -24
-37 -53 -73 -87 -107 -182 -232 -223 -293 -22 -31 -76 -108 -121 -172 -46 -63
-83 -118 -83 -120 0 -6 -138 -216 -170 -258 -11 -14 -20 -30 -20 -34 0 -4 -28
-53 -62 -108 -123 -200 -306 -563 -371 -738 -14 -36 -33 -81 -43 -99 -23 -44
-104 -261 -156 -414 -22 -66 -50 -145 -63 -175 -13 -30 -38 -104 -55 -165 -17
-60 -47 -155 -65 -211 -18 -55 -43 -143 -55 -195 -13 -52 -27 -99 -31 -105
-19 -23 -30 -156 -18 -218 6 -33 13 -64 15 -68 3 -4 22 2 43 13 44 22 81 92
81 151 0 18 10 50 23 70 118 195 231 357 346 493 164 195 154 177 162 330 7
128 18 179 60 272 10 24 19 46 19 50 0 5 20 50 45 101 25 51 45 98 45 104 0
22 113 219 123 215 7 -2 24 -41 39 -88 15 -46 32 -93 38 -104 12 -26 50 -190
50 -218 0 -20 0 -20 15 -1 16 21 21 163 6 180 -11 11 -22 214 -12 214 4 0 37
-39 74 -87 68 -90 161 -196 155 -178 -2 6 -18 39 -35 75 -53 109 -96 231 -86
241 7 7 16 1 27 -15 45 -70 216 -164 346 -191 29 -6 20 3 -55 53 -49 33 -124
95 -165 137 l-75 77 46 -5 c106 -14 342 -20 336 -9 -4 5 -26 13 -50 17 -61 9
-220 55 -235 67 -21 18 6 28 79 28 106 0 324 51 469 110 268 108 450 191 434
197 -6 2 -42 -8 -80 -23 -80 -31 -341 -99 -417 -109 -29 -4 -57 -11 -63 -16
-13 -11 -266 -27 -318 -21 -48 6 -46 22 3 22 49 0 206 27 229 40 9 5 67 23
127 41 191 56 487 192 718 330 54 33 102 59 107 59 5 0 13 6 17 14 4 8 36 30
70 50 75 44 85 57 35 44 -20 -5 -55 -13 -77 -19 -22 -5 -49 -13 -60 -18 -62
-29 -345 -70 -513 -75 -70 -3 -111 -2 -92 0 19 3 39 10 44 15 6 5 24 9 41 9
36 0 242 37 265 47 8 4 22 8 30 9 8 1 71 19 140 39 221 64 436 170 577 286 40
32 76 59 81 59 12 0 140 144 212 240 36 48 92 129 124 181 33 52 69 110 82
129 44 68 94 156 126 225 18 39 45 95 60 125 15 30 25 56 22 59 -2 3 -42 -7
-87 -22 -71 -24 -275 -67 -314 -67 -31 0 -8 17 60 44 148 58 474 221 507 253
13 13 11 14 -15 10 -16 -3 -79 -13 -140 -22 -60 -9 -119 -20 -130 -25 -18 -8
-342 -60 -373 -60 -32 0 -6 19 51 35 34 10 67 22 72 26 15 11 217 65 315 85
47 9 90 20 95 24 6 4 38 13 71 20 61 12 62 13 85 63 76 163 322 457 466 557
80 56 143 110 131 114 -7 3 -65 9 -128 15 -159 14 -201 22 -175 32 11 4 37 8
58 8 20 1 45 5 55 10 9 5 95 16 189 25 187 17 209 23 304 85 35 23 67 41 71
41 5 0 52 26 106 58 53 32 115 68 137 79 22 10 94 49 160 85 66 36 150 81 188
99 37 18 67 38 67 45 0 6 -19 17 -42 24 -24 8 -52 19 -63 26 -11 6 -57 24
-102 39 -141 48 -106 55 143 29 82 -8 175 -19 206 -23 75 -10 97 -2 243 91
310 198 573 441 802 743 33 44 66 91 73 105 7 14 32 55 56 91 88 136 207 395
249 541 9 32 22 70 30 85 16 33 61 267 71 368 4 39 11 73 16 76 5 3 8 44 6 90
l-3 84 -24 -70z m-4097 -3027 c-25 -28 -269 -281 -414 -429 -63 -65 -131 -135
-150 -157 -19 -21 -127 -140 -240 -263 -205 -224 -443 -495 -490 -559 -14 -18
-41 -53 -61 -76 -75 -88 -256 -320 -299 -384 -237 -354 -370 -561 -370 -574 0
-4 -21 -41 -47 -84 -62 -100 -102 -177 -214 -402 -149 -301 -190 -393 -334
-745 -31 -77 -66 -158 -78 -180 -57 -113 -177 -245 -223 -245 -38 0 -56 38
-35 78 5 9 26 69 46 132 20 63 50 141 66 173 16 32 29 62 29 67 0 18 201 456
280 610 102 198 155 299 170 320 9 14 32 57 52 95 19 39 56 102 81 142 26 39
47 75 47 79 0 26 392 581 483 684 8 8 16 22 19 30 6 15 288 359 371 453 23 26
61 69 84 95 202 228 741 772 765 772 4 0 24 18 44 40 20 22 41 40 47 40 6 0
27 15 47 34 57 55 335 284 339 280 2 -2 -4 -14 -15 -26z m-2914 -2740 c54 -57
97 -105 94 -107 -14 -14 -321 119 -372 161 -11 10 4 15 79 29 52 9 96 17 97
18 2 0 48 -45 102 -101z"/>
<path d="M22407 24139 l-47 -32 -65 22 c-71 23 -134 26 -237 11 -129 -19 -206
-55 -363 -170 -22 -16 -69 -49 -105 -74 -70 -48 -150 -118 -150 -133 0 -19
-58 -41 -125 -47 -38 -4 -131 -9 -205 -11 -190 -7 -229 -13 -257 -41 -18 -18
-23 -34 -23 -70 0 -26 -5 -63 -12 -81 -10 -27 -10 -40 1 -66 7 -17 14 -69 16
-115 3 -67 8 -90 27 -118 12 -19 31 -37 41 -40 9 -3 17 -14 17 -25 0 -13 7
-19 24 -19 21 0 24 -5 24 -34 0 -41 40 -114 67 -122 11 -3 31 -19 45 -35 19
-22 39 -31 85 -40 33 -6 68 -15 77 -20 30 -16 53 -10 81 19 15 15 27 32 27 37
0 5 8 18 19 29 10 12 49 77 85 146 37 69 71 132 76 140 6 8 22 38 36 67 14 28
33 58 42 65 20 16 203 63 222 56 7 -2 -13 -22 -46 -44 -59 -41 -78 -74 -55
-97 6 -6 11 -18 11 -27 0 -8 14 -36 30 -62 27 -42 34 -48 65 -48 34 0 46 -12
25 -25 -19 -12 -11 -44 13 -47 16 -2 23 -11 25 -30 3 -21 10 -30 30 -34 38 -9
92 -42 125 -76 31 -33 54 -33 136 3 24 10 47 19 52 19 4 0 9 -19 11 -42 3 -40
5 -43 33 -46 17 -2 34 -8 39 -13 6 -5 23 0 42 12 21 13 35 16 39 9 11 -18 78
-41 105 -35 19 4 31 0 44 -14 23 -26 65 -35 101 -21 24 9 37 7 83 -17 l54 -27
20 27 c24 33 28 33 62 2 20 -19 31 -22 49 -16 18 7 23 18 27 65 l5 57 50 -51
c58 -60 115 -92 153 -88 24 3 27 7 24 36 -4 39 15 43 59 11 20 -14 41 -19 66
-17 36 3 38 5 41 41 3 30 7 37 24 37 11 0 26 7 33 16 11 15 14 15 37 0 27 -18
62 -12 54 10 -20 52 -26 97 -16 109 9 11 6 29 -14 79 -14 35 -26 71 -26 79 0
21 -133 143 -187 170 -15 8 -59 36 -98 61 -71 47 -335 181 -415 211 -51 19
-95 29 -233 50 -92 14 -177 45 -177 64 0 5 6 14 14 20 14 11 25 31 71 121 10
19 38 56 63 82 44 45 81 64 165 82 35 8 35 32 -1 50 -15 8 -34 25 -41 39 -30
56 -120 64 -194 16z"/>
<path d="M30560 21969 c0 -6 5 -19 11 -31 15 -28 5 -33 -25 -13 -25 17 -26 17
-26 -4 0 -17 -6 -21 -29 -21 -16 0 -31 -6 -33 -12 -4 -12 -34 -17 -100 -18
-14 -1 -32 -7 -38 -15 -7 -8 -19 -15 -26 -15 -8 0 -32 -18 -54 -40 -34 -34
-39 -44 -30 -60 15 -28 13 -30 -24 -30 -39 0 -66 -28 -66 -67 0 -16 -8 -25
-26 -29 -19 -5 -23 -10 -17 -23 4 -9 7 -38 5 -66 -2 -59 12 -92 50 -111 19
-10 28 -22 28 -38 0 -22 -5 -24 -69 -31 -39 -4 -75 -4 -80 0 -6 3 -66 10 -133
15 -68 6 -146 13 -175 16 -73 9 -120 -2 -140 -32 -20 -31 -19 -78 1 -109 9
-14 16 -41 16 -62 0 -34 7 -46 68 -104 82 -81 153 -114 221 -105 44 6 101 42
197 126 74 64 98 80 124 80 37 0 48 -11 58 -57 11 -49 69 -123 128 -164 24
-16 46 -29 50 -29 4 0 38 -16 75 -35 38 -19 80 -35 95 -35 14 0 37 -6 52 -14
15 -8 50 -17 77 -21 28 -4 62 -15 77 -26 33 -23 61 -24 78 -4 8 10 18 12 28 6
20 -11 52 -2 52 15 0 8 -21 36 -47 63 -64 65 -114 128 -142 173 -12 20 -31 40
-41 43 -11 3 -29 21 -42 38 -12 18 -30 40 -40 50 -10 10 -18 24 -18 32 0 20
90 83 125 87 37 4 37 16 1 43 -21 15 -41 20 -83 18 -31 -1 -64 2 -75 8 -29 16
-22 51 15 76 20 12 46 45 64 80 16 32 35 67 41 78 21 37 51 146 45 163 -4 9
-14 28 -23 42 -9 14 -29 44 -45 68 -15 23 -34 42 -41 42 -7 0 -28 16 -45 35
-33 35 -49 44 -49 24z"/>
<path d="M25703 21395 c-35 -8 -91 -27 -125 -43 -35 -16 -88 -37 -118 -47 -82
-27 -150 -61 -198 -97 -56 -42 -124 -48 -245 -19 -49 12 -105 21 -125 21 -20
0 -62 7 -91 15 -75 20 -99 7 -124 -65 -10 -30 -23 -61 -29 -68 -6 -7 -10 -39
-9 -72 1 -32 -3 -61 -9 -65 -5 -3 -10 -36 -10 -72 0 -60 2 -67 31 -94 18 -16
29 -32 25 -36 -3 -3 -1 -12 5 -19 6 -8 12 -35 13 -62 1 -38 8 -57 31 -85 17
-19 38 -47 48 -61 10 -14 30 -29 45 -32 15 -3 44 -18 64 -31 25 -17 45 -23 60
-19 28 7 93 72 246 246 l118 135 110 0 c131 -1 164 -8 164 -35 0 -17 7 -20 39
-20 22 0 61 -9 87 -21 56 -23 109 -19 149 12 28 23 45 18 45 -13 0 -18 4 -19
38 -13 32 6 160 14 256 15 16 0 35 5 42 11 7 6 18 7 25 3 7 -4 19 3 30 17 16
22 19 22 44 9 21 -11 30 -12 45 -2 11 7 26 12 33 12 18 0 66 58 74 88 3 14 -1
39 -10 57 -19 39 -132 127 -224 175 -35 18 -60 36 -57 41 8 14 113 41 135 36
29 -8 35 20 12 46 -10 12 -24 34 -31 50 -6 15 -27 35 -47 44 -30 14 -41 15
-82 4 -68 -17 -90 -15 -158 19 -40 20 -87 33 -144 40 -100 12 -99 12 -178 -5z"/>
<path d="M22525 19769 c-198 -201 -338 -308 -521 -398 -177 -87 -300 -117
-514 -127 -80 -4 -179 -2 -245 5 -144 15 -396 60 -412 73 -7 5 -17 7 -23 3 -6
-4 -17 -2 -24 4 -8 7 -18 11 -22 10 -5 -1 -16 1 -24 4 -18 8 -251 59 -418 93
-518 103 -967 109 -1407 19 -134 -28 -398 -100 -429 -118 -12 -6 -23 -12 -26
-13 -3 0 -14 -4 -25 -9 -11 -4 -42 -17 -70 -27 -27 -10 -59 -22 -70 -27 -11
-5 -45 -19 -75 -31 -65 -26 -287 -136 -382 -188 -65 -36 -99 -61 -67 -50 9 4
76 25 150 48 74 23 139 46 144 50 12 10 88 31 129 36 16 2 52 11 80 21 28 9
53 18 56 18 3 1 12 4 20 8 28 11 254 65 340 82 47 9 92 19 100 22 8 3 21 5 28
4 8 -1 20 3 27 9 8 7 19 9 26 5 6 -4 21 -3 32 3 77 36 492 52 707 28 79 -10
150 -22 157 -28 7 -6 19 -8 28 -5 8 4 17 2 21 -4 3 -5 13 -9 22 -8 10 1 28 -1
42 -4 14 -4 108 -27 210 -52 102 -25 192 -48 200 -52 8 -4 20 -7 25 -8 6 0 16
-4 23 -8 6 -5 16 -6 21 -2 5 3 12 1 15 -4 5 -7 47 -17 111 -26 6 -1 17 -5 25
-8 30 -13 358 -79 460 -92 188 -26 412 -17 645 26 121 22 414 96 430 109 6 4
82 31 170 60 88 29 189 66 224 82 35 16 67 25 72 21 7 -8 21 -50 140 -433 28
-91 82 -262 119 -380 38 -118 92 -294 120 -390 85 -286 100 -333 115 -367 8
-17 15 -35 15 -41 0 -5 18 -68 39 -138 105 -349 124 -413 138 -463 7 -30 19
-61 26 -69 7 -8 11 -16 9 -16 -2 -1 -1 -8 2 -16 22 -68 49 -160 72 -240 14
-52 30 -99 34 -105 4 -5 44 -134 89 -286 44 -152 86 -289 92 -305 7 -16 13
-33 15 -39 1 -5 21 -71 44 -145 23 -74 69 -227 102 -340 32 -112 63 -209 68
-216 6 -6 7 -13 5 -16 -3 -3 -1 -18 5 -34 6 -16 11 -31 12 -34 0 -3 4 -10 8
-15 5 -6 13 -29 18 -50 17 -70 287 -946 303 -980 8 -19 82 -259 134 -438 19
-67 20 -77 6 -73 -9 3 -149 30 -311 61 -162 31 -304 60 -316 66 -11 6 -24 9
-30 8 -5 -1 -16 1 -24 4 -25 11 -714 140 -940 177 -74 12 -143 26 -153 31 -10
5 -23 7 -28 3 -6 -3 -21 -1 -32 5 -46 23 -690 104 -932 117 -66 4 -125 11
-132 16 -17 13 -693 12 -735 -1 -18 -5 -96 -15 -173 -21 -233 -18 -683 -88
-710 -110 -6 -5 -20 -9 -30 -9 -19 0 -270 -62 -460 -114 -148 -40 -270 -80
-273 -89 -2 -4 -8 -6 -13 -2 -5 3 -15 2 -21 -3 -7 -4 -17 -8 -23 -10 -12 -3
-440 -157 -475 -171 -18 -7 -21 -11 -10 -15 48 -17 85 -11 254 38 100 29 219
63 266 75 47 13 90 26 95 29 6 3 15 6 20 6 6 1 17 4 25 7 61 26 578 134 780
163 63 10 122 20 130 22 19 7 75 12 122 12 20 0 39 5 43 11 4 6 20 8 41 4 19
-3 40 -2 47 4 23 19 352 37 677 37 317 0 684 -19 706 -36 6 -5 28 -9 50 -9 74
-1 129 -6 142 -14 7 -4 25 -6 40 -5 15 1 34 -1 42 -4 8 -3 74 -13 145 -22 266
-34 895 -147 928 -165 10 -6 22 -8 27 -5 5 3 17 1 27 -4 10 -6 167 -42 348
-81 182 -38 404 -88 495 -110 570 -136 665 -158 669 -154 5 4 2 13 -109 389
-44 149 -82 278 -85 288 -2 9 -6 21 -9 25 -4 8 -90 297 -148 502 -16 58 -34
110 -39 116 -5 6 -6 13 -3 16 3 3 -2 22 -10 41 -8 20 -33 98 -55 174 -23 76
-45 145 -51 154 -5 9 -31 95 -58 190 -127 443 -155 535 -165 548 -7 8 -11 17
-10 20 1 3 -11 49 -27 101 -16 52 -63 217 -105 365 -43 149 -82 276 -89 284
-6 8 -9 15 -7 15 2 1 -10 46 -27 101 -16 55 -53 177 -81 270 -29 94 -68 224
-88 290 -20 66 -54 179 -75 250 -22 72 -84 281 -137 465 -54 184 -116 394
-139 465 -22 72 -48 155 -56 185 -9 30 -32 111 -52 179 -20 68 -44 157 -55
197 -10 39 -24 85 -31 101 -6 15 -10 31 -10 36 1 4 -4 22 -11 40 -8 17 -33
100 -57 182 -83 291 -122 420 -129 427 -4 4 -47 -33 -96 -83z"/>
<path d="M16173 19518 c-50 -60 -58 -74 -45 -79 9 -4 80 -19 157 -34 136 -25
404 -89 435 -102 8 -3 17 -7 20 -8 3 -1 12 -5 20 -8 8 -3 80 -26 160 -50 80
-24 165 -53 190 -65 25 -11 65 -25 90 -31 50 -13 86 -26 145 -52 77 -33 169
-69 177 -69 5 0 28 -9 50 -20 56 -27 60 -18 6 16 -121 76 -183 117 -188 123
-15 19 -344 186 -481 244 -106 45 -437 157 -465 157 -9 0 -30 6 -47 14 -42 19
-106 36 -137 36 -19 0 -41 -18 -87 -72z"/>
<path d="M12125 18943 c-37 -87 -87 -194 -112 -238 -24 -44 -49 -92 -56 -107
-6 -16 -15 -28 -19 -28 -4 0 -8 -7 -8 -15 0 -9 -35 -51 -77 -94 -58 -57 -93
-84 -135 -101 l-56 -23 -42 -171 c-24 -94 -47 -176 -52 -182 -5 -7 -8 -16 -7
-20 2 -5 -7 -40 -18 -79 -11 -38 -44 -162 -72 -275 -29 -113 -56 -214 -61
-225 -5 -11 -42 -148 -81 -305 -39 -157 -75 -290 -80 -296 -5 -6 -6 -14 -2
-17 3 -4 1 -12 -4 -19 -12 -15 -11 -10 -179 -668 -19 -74 -37 -142 -41 -150
-4 -8 -8 -19 -8 -25 -1 -5 -5 -17 -8 -25 -7 -16 -54 -194 -143 -539 -30 -118
-59 -222 -64 -231 -5 -9 -25 -81 -46 -161 -20 -79 -40 -149 -45 -155 -5 -6 -6
-14 -2 -17 3 -4 1 -13 -5 -20 -7 -8 -9 -17 -5 -20 3 -4 1 -12 -5 -19 -6 -7
-17 -40 -25 -73 -52 -214 -170 -662 -178 -671 -5 -6 -6 -14 -2 -17 3 -4 0 -13
-6 -21 -7 -8 -10 -20 -6 -26 4 -6 2 -17 -4 -23 -5 -7 -53 -184 -106 -392 -53
-209 -99 -387 -102 -395 -3 -8 -5 -19 -4 -24 1 -4 -4 -14 -10 -22 -7 -8 -9
-17 -6 -21 4 -3 3 -11 -2 -17 -15 -19 -53 -178 -44 -186 9 -8 220 -44 353 -59
272 -33 740 -37 1144 -11 290 19 763 74 1126 131 282 43 3946 651 3960 656 8
3 -5 10 -30 15 -25 5 -52 12 -60 15 -8 3 -21 5 -28 4 -8 -1 -20 3 -27 9 -8 7
-19 9 -25 5 -6 -4 -17 -2 -25 5 -7 6 -19 10 -27 9 -7 -1 -20 1 -28 4 -39 16
-485 78 -690 96 -501 44 -1100 37 -1700 -19 -258 -24 -727 -82 -743 -91 -10
-5 -27 -7 -38 -4 -11 4 -26 1 -34 -5 -8 -7 -26 -9 -40 -6 -14 3 -33 2 -42 -4
-10 -5 -162 -28 -338 -50 -176 -23 -365 -48 -420 -56 -310 -46 -710 -86 -1030
-104 -233 -13 -680 -18 -691 -7 -9 9 65 330 79 338 5 4 7 14 4 23 -3 8 -2 18
2 21 5 2 12 22 16 42 9 53 164 685 172 703 3 8 5 19 4 24 -1 4 4 14 10 22 7 8
9 17 6 21 -4 3 -3 11 2 17 5 6 18 54 30 106 36 155 182 754 189 770 3 8 6 20
7 25 0 6 4 16 9 23 4 7 5 16 2 19 -3 3 -2 11 3 17 5 6 14 36 21 66 33 148 162
667 170 685 6 11 28 99 51 195 23 96 46 180 51 187 5 7 7 17 4 22 -4 5 -1 13
5 16 5 4 8 14 5 22 -4 9 -1 22 5 30 7 7 9 16 6 20 -4 3 -2 12 3 19 6 6 10 16
9 20 -1 5 1 16 4 24 6 14 139 555 167 680 7 30 17 60 22 67 5 7 7 17 4 22 -4
5 -1 13 5 16 5 4 8 13 5 20 -2 7 -2 16 2 19 3 4 52 192 108 419 57 226 137
547 178 711 42 165 75 301 73 303 -2 2 -34 -68 -72 -154z"/>
<path d="M23233 19087 c4 -10 23 -84 42 -165 20 -81 46 -183 60 -227 13 -44
62 -240 109 -435 47 -195 90 -364 95 -375 5 -11 32 -114 60 -230 73 -301 171
-697 176 -715 16 -54 65 -247 130 -510 41 -168 77 -312 80 -320 11 -37 125
-480 216 -840 54 -217 101 -402 104 -410 3 -8 52 -208 110 -445 58 -236 108
-437 112 -445 4 -8 8 -19 9 -25 1 -5 3 -14 4 -20 2 -5 4 -14 5 -20 1 -5 5 -17
8 -25 13 -33 125 -515 120 -520 -2 -3 -111 -4 -241 -3 -450 5 -820 38 -1382
122 -74 11 -243 37 -375 56 -132 20 -247 40 -256 45 -9 5 -26 6 -38 3 -12 -3
-28 0 -36 7 -8 6 -19 9 -26 5 -6 -4 -21 -2 -32 4 -25 12 -568 90 -842 120
-426 47 -574 55 -1040 56 -445 0 -548 -5 -860 -41 -245 -28 -690 -104 -720
-122 -5 -4 -19 -6 -29 -7 -11 0 -21 -5 -23 -10 -2 -7 43 -17 114 -27 65 -10
620 -89 1233 -178 3027 -437 3158 -453 3871 -481 309 -12 614 -5 904 22 114
11 323 43 331 52 5 5 -90 387 -103 417 -4 8 -8 20 -8 25 -1 6 -5 17 -8 25 -4
8 -22 76 -41 150 -19 74 -46 178 -60 230 -13 52 -41 158 -61 235 -19 77 -39
147 -42 155 -3 8 -7 18 -8 23 -2 4 -4 8 -5 10 -1 1 -4 11 -6 22 -2 11 -12 52
-24 90 -11 39 -34 122 -50 185 -17 63 -35 124 -40 135 -5 11 -25 79 -44 150
-79 297 -147 549 -152 557 -6 9 -49 162 -104 373 -34 128 -79 291 -125 455
-34 120 -59 208 -88 320 -20 74 -52 194 -72 265 -20 72 -38 139 -40 150 -3 11
-9 31 -15 45 -5 14 -28 97 -50 185 -23 88 -45 169 -50 180 -10 22 -22 65 -136
515 -41 162 -78 302 -81 310 -3 8 -7 22 -9 30 -21 105 -23 108 -100 145 -54
26 -87 51 -133 101 -34 37 -61 73 -61 80 0 7 -4 14 -10 16 -8 3 -24 28 -81
133 -30 54 -159 356 -159 371 0 6 -8 18 -17 25 -15 12 -16 12 -10 -4z"/>
<path d="M17687 18880 c-8 -55 -42 -682 -62 -1120 -30 -677 -38 -1148 -32
-1954 6 -885 19 -1226 75 -2011 l7 -90 33 -3 c21 -2 32 1 33 10 19 178 46 625
60 1017 25 665 14 2166 -21 2891 -5 96 -11 222 -13 280 -3 58 -8 150 -11 205
-3 55 -8 136 -10 180 -6 113 -44 605 -49 624 -2 9 -7 -4 -10 -29z"/>
<path d="M11428 18473 c-39 -124 -138 -456 -158 -533 -7 -25 -16 -50 -21 -56
-5 -6 -6 -14 -2 -17 3 -4 1 -12 -5 -19 -5 -7 -45 -132 -87 -278 -42 -146 -90
-310 -107 -365 -18 -55 -32 -104 -33 -110 -1 -5 -6 -21 -12 -35 -5 -14 -20
-61 -33 -105 -12 -44 -37 -129 -55 -190 -18 -60 -49 -168 -70 -240 -21 -71
-41 -134 -45 -140 -4 -5 -26 -77 -50 -160 -23 -82 -46 -154 -50 -160 -5 -5 -8
-12 -9 -15 0 -3 -2 -12 -5 -20 -3 -8 -9 -31 -14 -50 -5 -19 -40 -138 -77 -265
-37 -126 -74 -254 -81 -284 -8 -30 -19 -60 -24 -66 -6 -7 -7 -15 -3 -18 3 -4
0 -13 -7 -22 -7 -8 -9 -15 -5 -15 4 0 3 -6 -3 -12 -9 -12 -162 -529 -184 -622
-4 -21 -15 -51 -23 -66 -8 -15 -11 -30 -8 -33 3 -4 0 -13 -7 -22 -7 -8 -9 -15
-5 -15 4 0 3 -6 -3 -12 -5 -7 -30 -85 -56 -173 -25 -88 -63 -214 -84 -280 -22
-66 -49 -156 -62 -200 -52 -182 -103 -351 -111 -366 -4 -8 -9 -26 -11 -40 -2
-13 -6 -28 -10 -34 -12 -21 -142 -475 -136 -479 18 -14 232 -86 255 -86 6 0
17 17 23 38 6 20 14 44 17 52 4 8 5 19 4 24 -1 4 4 14 10 22 6 8 8 14 4 14 -4
0 -2 7 5 15 7 9 10 18 7 22 -4 3 -3 11 2 17 5 6 21 56 35 111 14 55 44 168 66
250 22 83 45 171 51 197 6 26 15 50 20 54 5 3 7 10 3 15 -3 5 0 17 7 25 6 8 9
17 6 21 -4 3 -3 11 2 17 9 12 24 61 71 241 17 66 40 152 50 190 10 39 33 124
50 190 17 66 33 126 35 133 3 7 3 14 2 16 -1 1 4 10 12 20 8 9 11 19 8 23 -4
3 -3 11 2 17 5 6 23 65 41 131 17 66 47 181 67 255 19 74 40 140 45 147 5 7 7
17 4 22 -4 5 -1 13 5 16 5 4 8 13 5 21 -3 7 -1 16 5 20 6 3 8 12 5 20 -3 8 -1
14 5 14 6 0 8 7 5 16 -4 9 -2 22 3 28 5 6 24 65 41 131 18 66 43 159 56 207
13 48 24 94 24 102 0 9 4 16 9 16 5 0 14 24 21 53 7 28 22 90 35 137 13 47 34
128 48 180 69 260 90 336 98 346 5 6 6 14 2 17 -3 4 0 13 6 21 7 8 10 20 7 25
-4 5 -1 13 5 16 5 4 8 13 5 21 -3 8 -1 14 4 14 6 0 10 7 10 15 0 8 18 79 39
157 22 79 65 242 97 363 32 121 62 223 67 226 5 4 6 12 2 18 -4 7 -2 18 4 24
5 7 42 134 81 282 40 149 83 308 97 355 14 47 26 92 27 100 1 9 5 20 8 25 3 6
20 64 38 130 17 66 38 138 46 160 15 43 19 45 197 121 37 16 67 32 67 36 0 5
-87 8 -193 8 l-192 0 -37 -117z"/>
<path d="M23580 18580 c0 -5 7 -10 14 -10 8 0 63 -22 121 -50 58 -27 110 -50
115 -50 10 0 8 8 60 -190 69 -266 83 -315 90 -325 4 -5 20 -57 35 -115 37
-146 83 -309 89 -318 4 -8 69 -243 152 -557 19 -71 37 -137 41 -145 3 -8 7
-19 8 -25 0 -5 4 -17 8 -25 7 -17 142 -520 183 -682 14 -60 31 -108 36 -108 6
0 7 -7 4 -16 -4 -9 -1 -23 6 -32 7 -8 12 -17 11 -18 -1 -2 0 -9 2 -16 2 -7 31
-112 64 -233 58 -212 109 -394 192 -690 22 -77 41 -147 44 -155 2 -8 15 -53
28 -100 23 -79 56 -201 143 -530 19 -74 38 -142 41 -150 4 -8 7 -17 8 -20 1
-3 11 -36 22 -75 12 -38 40 -142 63 -230 63 -238 131 -488 137 -505 4 -8 5
-19 4 -24 -1 -4 4 -14 10 -22 6 -8 8 -14 4 -14 -4 0 -3 -6 3 -12 5 -7 15 -39
22 -70 8 -34 19 -58 26 -58 19 0 248 70 255 78 6 7 -64 261 -95 347 -14 39
-64 204 -141 470 -21 72 -41 137 -45 145 -5 8 -37 116 -73 240 -79 269 -140
474 -200 670 -38 126 -139 467 -154 525 -3 11 -9 25 -12 30 -4 6 -16 39 -26
75 -40 146 -98 336 -105 345 -4 6 -24 71 -45 145 -20 74 -59 209 -86 299 -27
90 -49 170 -49 177 0 7 -3 14 -8 16 -4 2 -26 68 -50 148 -106 365 -156 538
-165 578 -6 23 -14 42 -19 42 -5 0 -7 4 -3 10 3 5 1 17 -4 27 -12 20 -46 132
-125 409 -30 105 -62 208 -70 229 -9 21 -14 40 -11 43 3 3 1 10 -4 16 -5 6
-28 76 -51 156 -23 80 -46 149 -51 155 -5 5 -9 15 -9 23 0 8 -12 52 -26 98
l-25 84 -195 0 c-123 0 -194 -4 -194 -10z"/>
<path d="M27315 13764 c-16 -2 -65 -9 -108 -15 -274 -37 -595 -178 -832 -366
-338 -268 -550 -615 -632 -1034 -16 -84 -18 -151 -18 -629 l0 -535 -241 -3
c-295 -3 -279 5 -279 -143 0 -142 -17 -133 274 -137 l238 -3 7 -87 c3 -48 8
-348 11 -667 15 -1479 58 -2541 140 -3485 14 -157 27 -316 31 -355 11 -137 22
-154 97 -155 52 0 62 24 75 171 109 1217 145 1929 162 3199 5 421 12 903 16
1073 l7 307 201 0 201 0 58 -110 c32 -60 62 -112 67 -115 6 -3 51 10 102 30
50 20 146 52 212 71 122 35 387 89 407 82 6 -2 -7 -16 -29 -31 -198 -131 -398
-393 -470 -617 -48 -149 -57 -208 -56 -385 0 -182 12 -248 67 -402 90 -249
275 -504 500 -686 218 -177 481 -297 727 -332 l45 -6 125 107 c69 59 190 162
270 229 330 277 760 652 1220 1063 l135 120 48 -94 c62 -123 138 -354 171
-519 23 -118 26 -161 31 -455 9 -455 55 -1426 70 -1450 4 -6 74 -10 169 -10
l164 0 6 63 c7 77 32 550 46 882 12 309 28 1004 35 1595 3 245 8 561 11 702
l7 256 188 4 c235 4 224 -3 224 144 0 93 -2 107 -19 120 -16 12 -97 14 -467
14 -390 0 -448 -2 -459 -15 -10 -13 -12 -92 -6 -387 l7 -372 -88 87 c-160 157
-298 255 -511 363 -366 186 -758 276 -1402 323 -121 9 -444 -1 -640 -20 -272
-25 -548 -87 -780 -174 -52 -19 -96 -35 -97 -35 -2 0 -3 46 -3 103 0 56 -5
109 -10 117 -7 12 -40 16 -152 20 -142 5 -143 5 -155 31 -23 48 -83 272 -110
408 -24 123 -27 159 -27 371 -1 186 3 253 16 320 67 328 246 637 470 815 190
150 467 245 712 245 128 0 288 -24 376 -55 373 -134 635 -406 696 -722 47
-249 -32 -490 -225 -684 -178 -177 -420 -263 -646 -229 -170 26 -288 83 -400
195 -125 124 -175 230 -175 371 0 85 26 179 70 247 129 203 402 293 603 199
71 -33 155 -104 192 -162 30 -47 49 -132 41 -186 -15 -110 -72 -186 -180 -239
-134 -65 -309 -9 -367 119 -42 92 -8 175 101 247 25 16 25 17 7 53 -23 48 -40
53 -90 26 -63 -34 -104 -78 -137 -144 -60 -120 -30 -257 79 -359 63 -59 130
-92 228 -112 71 -14 86 -15 151 -1 257 54 427 282 393 526 -27 196 -210 388
-436 456 -45 14 -93 18 -190 18 -119 0 -137 -3 -217 -31 -223 -78 -395 -241
-473 -446 -158 -421 140 -893 652 -1034 89 -25 115 -27 273 -28 187 0 226 6
368 56 344 121 627 417 727 764 51 174 43 420 -19 603 -78 228 -265 480 -474
637 -185 139 -475 259 -712 295 -79 12 -344 21 -395 14z m1690 -3005 c195 -65
418 -182 580 -306 61 -47 185 -163 185 -173 0 -3 -42 -42 -92 -86 -51 -43
-416 -360 -811 -702 l-719 -624 -31 13 c-49 20 -173 95 -225 136 -26 20 -98
87 -159 150 -273 276 -387 562 -340 849 45 272 230 513 484 627 284 128 559
88 769 -112 66 -63 107 -142 125 -243 33 -183 -70 -380 -241 -462 -61 -29 -72
-31 -180 -31 -108 0 -119 2 -180 31 -115 54 -180 139 -188 244 -7 100 27 176
105 236 178 136 463 -31 360 -210 -49 -86 -128 -107 -223 -61 -62 30 -73 29
-108 -18 l-20 -27 29 -30 c73 -77 214 -99 323 -51 69 31 144 112 163 178 36
123 7 238 -83 324 -204 196 -533 154 -694 -88 -130 -197 -102 -416 76 -593
130 -130 268 -184 470 -184 128 0 203 16 306 65 171 81 329 271 378 454 26 95
31 237 12 325 -28 133 -128 307 -223 390 l-36 32 34 -7 c19 -4 88 -25 154 -46z"/>
<path d="M17950 13410 c-121 -14 -277 -48 -395 -87 -216 -72 -549 -261 -715
-408 -98 -86 -280 -275 -351 -365 -254 -319 -431 -714 -498 -1114 -39 -230
-44 -373 -37 -1078 l7 -668 -289 0 c-303 0 -343 -5 -364 -44 -18 -32 -23 -253
-6 -301 20 -61 38 -64 364 -64 l281 -1 7 -82 c3 -46 9 -456 12 -913 l7 -830
-84 -1 c-46 -1 -207 -2 -356 -3 l-273 -1 0 -325 0 -325 359 0 358 0 7 -37 c3
-21 6 -53 6 -70 l0 -33 -262 -2 -263 -3 -2 -115 c-7 -352 -72 -881 -172 -1400
-44 -228 -144 -659 -196 -845 -20 -71 -43 -155 -52 -185 -8 -30 -25 -89 -39
-130 -13 -41 -24 -81 -24 -90 0 -8 22 -42 48 -75 126 -157 456 -690 619 -1000
94 -177 233 -465 233 -480 0 -3 9 -24 19 -48 99 -219 199 -571 215 -762 4 -38
9 -94 12 -122 l5 -53 50 0 49 0 0 1303 c0 1251 -1 1305 -18 1320 -10 10 -23
17 -29 17 -20 0 -72 69 -79 105 -16 86 17 160 86 195 73 37 151 21 207 -43 33
-38 51 -105 39 -150 -10 -42 -51 -92 -95 -116 l-44 -24 7 -986 c3 -542 7
-1129 7 -1304 l1 -318 56 3 57 3 7 105 c9 136 32 264 75 420 30 113 114 360
148 435 7 17 22 50 33 75 11 25 30 70 43 100 46 110 232 473 299 581 11 19 26
45 33 59 6 14 19 36 28 50 9 14 55 91 103 171 95 161 154 253 276 431 l81 117
-21 68 c-256 818 -473 1961 -481 2543 -1 69 -6 133 -11 143 -9 17 -26 18 -221
16 l-212 -1 4 63 c2 35 4 65 5 66 1 1 143 4 316 5 l315 3 -1 80 c0 44 -1 191
-2 328 l-2 247 -309 0 c-171 0 -311 3 -313 8 -6 13 9 1513 17 1665 l7 147 267
1 c310 0 329 4 349 64 20 59 13 272 -10 307 -22 33 -50 38 -233 38 l-152 0
-26 93 c-69 245 -112 444 -144 667 -14 98 -17 189 -17 425 0 280 2 310 27 445
53 295 137 525 279 764 251 423 557 651 1003 748 81 17 378 17 475 -1 300 -54
640 -261 834 -507 156 -197 238 -374 275 -594 44 -258 15 -472 -94 -706 -133
-285 -349 -485 -635 -589 -204 -73 -485 -38 -694 87 -171 103 -329 299 -381
475 -9 32 -21 71 -26 87 -15 47 -10 221 7 299 44 193 167 365 331 460 236 138
494 97 678 -106 138 -152 170 -354 85 -533 -36 -75 -123 -159 -207 -201 -80
-39 -193 -40 -268 -3 -64 31 -144 111 -175 175 -52 109 -22 245 72 330 28 25
54 45 58 45 34 0 2 108 -39 129 -46 25 -182 -92 -236 -204 -133 -272 25 -596
337 -692 63 -19 206 -22 263 -4 118 36 232 106 306 189 57 63 132 208 154 297
21 84 24 256 6 335 -16 66 -77 202 -120 264 -119 173 -288 290 -489 337 -125
30 -303 24 -417 -15 -301 -103 -549 -359 -640 -661 -42 -140 -49 -195 -49
-350 0 -122 5 -166 23 -235 76 -292 214 -509 431 -681 261 -206 557 -297 879
-269 127 11 217 33 358 85 180 67 327 168 498 339 230 231 375 497 447 823 30
134 32 466 5 618 -58 317 -187 592 -401 855 -280 344 -672 581 -1116 676 -93
20 -152 26 -305 29 -104 2 -224 0 -265 -5z"/>
<path d="M2940 12360 c-431 -19 -769 -88 -1133 -231 -94 -38 -277 -125 -277
-133 0 -5 122 -264 138 -293 12 -22 12 -22 116 28 134 63 365 139 536 177 228
51 218 57 96 -59 -178 -169 -288 -323 -395 -552 -229 -487 -210 -1112 48
-1625 108 -215 256 -417 436 -597 185 -186 342 -295 541 -377 104 -43 327
-102 353 -93 15 5 971 959 1256 1255 198 206 510 533 650 682 89 95 122 124
128 113 26 -47 113 -285 148 -407 106 -367 123 -513 134 -1168 6 -405 16 -700
45 -1330 11 -234 20 -444 20 -467 l0 -43 200 0 200 0 0 23 c0 12 7 150 15 307
41 796 60 1517 75 2815 6 517 14 1089 18 1270 l7 330 218 5 c275 6 257 -7 257
191 0 126 -2 141 -20 159 -19 19 -33 20 -539 20 -454 0 -520 -2 -531 -15 -10
-13 -12 -105 -6 -448 4 -238 9 -465 13 -504 4 -47 2 -73 -4 -73 -6 0 -30 26
-54 58 -121 161 -402 405 -617 537 -318 194 -734 336 -1162 394 -417 57 -576
66 -910 51z m1210 -527 c348 -127 688 -356 911 -614 l51 -59 -43 -48 c-34 -37
-794 -818 -1713 -1759 -60 -62 -116 -113 -123 -113 -20 0 -140 77 -231 147
-139 109 -321 323 -430 506 -210 353 -267 754 -157 1107 38 120 134 302 213
400 175 219 415 344 662 343 90 -1 119 -5 197 -31 287 -97 458 -313 480 -607
15 -204 -94 -441 -253 -547 -178 -120 -408 -96 -554 58 -147 155 -153 400 -14
553 58 65 105 86 194 86 81 0 125 -17 189 -71 90 -75 104 -222 30 -323 -56
-79 -148 -95 -232 -41 -26 17 -54 30 -62 30 -21 0 -75 -62 -75 -85 0 -31 27
-63 84 -100 58 -37 96 -47 171 -46 196 2 345 181 345 415 0 98 -22 170 -76
251 -95 144 -257 223 -434 213 -144 -8 -293 -106 -383 -250 -60 -96 -84 -160
-103 -271 -26 -149 -5 -276 73 -434 96 -198 300 -345 533 -383 133 -22 302 5
429 70 187 94 362 312 440 550 29 87 51 235 51 346 0 239 -86 476 -241 668
-79 98 -84 96 71 39z"/>
<path d="M7201 12344 c-19 -24 -21 -40 -21 -156 0 -195 4 -198 265 -198 l172
0 7 -242 c3 -134 11 -666 16 -1183 20 -1912 69 -3218 171 -4530 33 -427 35
-445 53 -463 22 -23 109 -23 131 -1 24 24 56 397 110 1259 75 1215 100 2013
115 3635 5 556 12 1126 16 1267 l7 257 178 3 179 3 27 28 c27 26 28 33 31 133
4 124 -2 168 -29 195 -18 18 -39 19 -713 19 l-695 0 -20 -26z"/>
<path d="M11080 11290 l0 -200 809 0 808 0 6 -137 c4 -76 10 -239 13 -362 l7
-225 -29 23 c-95 73 -202 127 -322 162 -88 26 -300 36 -410 20 -288 -42 -533
-223 -596 -440 -20 -69 -20 -170 -1 -246 44 -166 222 -330 415 -380 84 -22
253 -22 335 0 215 57 355 201 355 365 0 96 -22 152 -89 220 -68 70 -113 93
-216 115 -245 50 -470 -107 -424 -297 9 -39 23 -63 58 -98 105 -104 286 -107
380 -5 36 39 41 50 41 92 0 85 -60 150 -115 125 -29 -13 -34 -52 -10 -72 8 -7
15 -25 15 -40 0 -24 -8 -32 -46 -50 -61 -30 -108 -23 -151 25 -19 19 -33 45
-33 59 0 33 46 85 95 107 118 54 272 -22 292 -144 14 -90 -79 -184 -213 -212
-92 -20 -130 -19 -198 5 -231 79 -298 311 -137 470 202 199 587 214 833 32 60
-44 146 -135 158 -167 4 -11 10 -213 14 -450 12 -767 45 -1533 86 -1985 5 -58
9 -117 10 -132 l0 -28 174 0 173 0 194 94 c107 51 282 137 389 190 l195 96 3
-67 c2 -37 -4 -115 -13 -173 -61 -394 -333 -800 -700 -1042 -217 -143 -448
-227 -760 -278 -222 -37 -570 -16 -825 50 -336 86 -577 217 -790 430 -129 129
-221 257 -300 415 -117 237 -166 467 -157 740 13 395 165 753 423 994 133 124
326 201 506 201 391 0 697 -292 716 -683 4 -99 2 -115 -23 -193 -50 -155 -151
-273 -288 -338 -97 -46 -165 -59 -279 -54 -86 3 -103 8 -172 42 -139 68 -225
185 -246 334 -31 218 113 397 329 410 93 5 151 -18 222 -88 60 -60 83 -127 77
-220 -7 -97 -31 -139 -97 -171 -29 -14 -57 -32 -61 -39 -12 -20 1 -94 19 -108
20 -17 91 -7 141 18 123 63 197 258 164 431 -29 155 -118 270 -261 341 -79 39
-92 43 -182 46 -180 8 -309 -43 -436 -172 -131 -133 -182 -268 -172 -458 9
-182 77 -331 211 -463 95 -93 162 -135 283 -179 85 -30 94 -31 238 -30 179 1
261 20 401 90 303 152 480 424 500 769 10 165 -31 363 -105 515 -58 120 -108
188 -216 295 -168 169 -343 266 -565 316 -149 33 -427 22 -569 -22 -481 -148
-873 -614 -1020 -1209 -159 -647 -3 -1311 438 -1858 195 -241 438 -430 744
-577 282 -136 496 -196 872 -246 98 -13 447 -14 525 -1 383 64 676 169 960
346 133 82 308 225 411 332 61 65 199 237 217 271 7 12 18 27 25 35 27 29 130
210 167 295 162 376 206 742 134 1102 -28 136 -62 238 -144 431 -60 142 -65
150 -92 150 -11 0 -233 -108 -494 -241 -262 -133 -477 -239 -479 -237 -2 2 0
85 5 183 21 391 30 685 40 1270 10 537 42 1272 66 1508 l6 57 489 0 489 0 0
200 0 200 -1620 0 -1620 0 0 -200z"/>
<path d="M18405 9849 c-49 -14 -55 -32 -55 -161 0 -108 2 -119 22 -138 l22
-20 2467 0 c1525 0 2470 -4 2474 -9 7 -12 29 -1591 22 -1598 -3 -2 -27 12 -54
31 -80 57 -193 106 -299 128 -81 16 -120 19 -214 14 -63 -3 -139 -12 -168 -20
-73 -20 -168 -66 -225 -110 -27 -21 -50 -36 -51 -34 -2 2 -24 44 -51 93 -134
252 -326 460 -583 631 -196 131 -375 205 -600 245 -105 19 -140 21 -342 16
-124 -4 -269 -13 -323 -22 -379 -60 -690 -175 -968 -360 -112 -75 -371 -312
-457 -419 -137 -171 -238 -370 -295 -584 -30 -112 -31 -125 -31 -322 -1 -282
26 -410 134 -627 225 -452 689 -743 1260 -792 110 -9 151 -8 315 10 354 39
632 171 858 408 191 201 287 437 287 708 0 290 -93 502 -311 707 -83 78 -225
170 -327 211 -135 55 -222 69 -417 70 -181 0 -214 -4 -350 -45 -274 -82 -497
-305 -561 -560 -33 -132 -9 -310 61 -450 73 -145 248 -273 430 -315 141 -33
341 -15 460 41 116 55 227 175 257 278 21 71 16 194 -11 253 -12 28 -30 54
-38 57 -23 9 -103 -15 -113 -34 -6 -10 -7 -38 -4 -62 13 -95 -35 -187 -131
-246 -59 -37 -61 -37 -165 -37 -94 0 -111 3 -160 27 -90 45 -135 95 -165 187
-43 131 22 295 149 376 96 61 280 84 409 50 88 -23 195 -81 248 -136 106 -109
154 -299 114 -454 -81 -310 -397 -500 -800 -482 -239 11 -433 83 -595 221
-131 111 -202 222 -260 401 -28 87 -33 118 -38 242 -5 155 3 215 45 341 95
283 317 534 580 653 171 78 392 130 603 143 137 9 402 -9 512 -33 154 -35 371
-135 516 -238 131 -93 290 -270 377 -418 47 -81 120 -235 148 -313 85 -233
238 -404 340 -378 42 10 57 33 57 86 0 54 21 163 43 226 101 283 301 447 547
447 65 1 83 -4 129 -28 83 -45 136 -121 180 -253 44 -134 67 -347 81 -742 12
-331 44 -956 62 -1187 l11 -153 209 0 208 0 0 23 c0 12 7 121 15 242 47 706
67 1355 86 2710 6 440 14 886 17 990 l7 190 202 5 c248 6 236 0 242 137 4 130
-8 169 -57 183 -47 13 -5943 12 -5987 -1z"/>
<path d="M12533 5234 c4 -76 3 -85 -12 -79 -41 16 -185 55 -242 65 -111 21
-281 14 -391 -14 -267 -68 -479 -240 -607 -492 -57 -113 -82 -208 -88 -344
-14 -315 125 -611 360 -767 150 -100 290 -138 476 -130 192 7 323 58 451 173
128 116 240 357 275 592 27 182 35 241 35 267 0 14 4 25 9 25 18 0 107 -88
200 -199 204 -241 410 -413 678 -564 341 -193 675 -251 943 -163 81 27 110 52
110 96 0 50 -15 54 -164 39 -271 -26 -482 33 -696 192 -71 53 -187 166 -261
254 -19 22 -36 42 -39 45 -40 40 -343 396 -417 490 -60 77 -195 209 -273 266
l-54 40 3 141 3 140 -99 6 c-54 4 -122 7 -152 7 l-54 0 6 -86z m-247 -454 c39
-10 105 -35 147 -54 l74 -34 -4 -73 c-18 -320 -65 -518 -159 -660 -89 -135
-200 -182 -371 -158 -170 24 -274 126 -324 316 -54 204 -7 422 117 548 126
127 321 171 520 115z"/>
</g>
</svg>
